<?xml version="1.0" encoding="UTF-8"?>
<svg id="a" xmlns="http://www.w3.org/2000/svg" version="1.1" viewBox="0 0 2687.7 512">
  <!-- Generator: Adobe Illustrator 30.2.1, SVG Export Plug-In . SVG Version: 2.1.1 Build 1)  -->
  <defs>
    <style>
      .st0 {
        fill: #29324f;
      }

      .st1 {
        fill: #67e8f9;
      }

      .st2 {
        fill: #3c698e;
      }

      .st3 {
        fill: #4aa6c8;
      }
    </style>
  </defs>
  <g>
    <path class="st0" d="M539.91,369.63V88.33h109.69c21.4,0,39.58,4.06,54.56,12.18s26.4,19.32,34.27,33.6c7.86,14.29,11.8,30.68,11.8,49.18s-4,35.02-11.99,49.18c-7.99,14.16-19.57,25.24-34.74,33.23-15.17,7.99-33.58,11.99-55.22,11.99h-70.61v-46.44h61.36c11.83,0,21.55-2.04,29.17-6.14,7.61-4.09,13.28-9.72,16.99-16.9,3.71-7.17,5.57-15.48,5.57-24.92s-1.86-17.71-5.57-24.83c-3.71-7.11-9.41-12.65-17.09-16.61-7.68-3.96-17.43-5.95-29.26-5.95h-41.35v233.72h-57.58Z"/>
    <path class="st0" d="M848.02,88.33v281.3h-57.58V88.33h57.58Z"/>
    <path class="st0" d="M1021.9,373.41c-24.92,0-47.23-5.66-66.93-16.99s-35.24-27.75-46.63-49.27-17.09-47.51-17.09-77.97,5.73-56.67,17.18-78.25,27.06-38.04,46.82-49.37c19.76-11.33,41.97-16.99,66.64-16.99,15.98,0,30.87,2.24,44.65,6.7,13.78,4.47,26.02,10.98,36.72,19.54s19.45,19.04,26.24,31.43c6.8,12.4,11.26,26.53,13.4,42.38h-58.34c-1.26-7.8-3.68-14.69-7.27-20.67s-8.06-11.07-13.4-15.29c-5.35-4.22-11.49-7.42-18.41-9.63-6.92-2.2-14.41-3.3-22.47-3.3-14.6,0-27.41,3.65-38.42,10.95s-19.57,17.91-25.68,31.81c-6.11,13.91-9.16,30.81-9.16,50.69s3.08,37.32,9.25,51.16c6.17,13.85,14.73,24.29,25.68,31.34s23.66,10.57,38.14,10.57c8.05,0,15.51-1.1,22.37-3.3,6.86-2.2,13.03-5.41,18.5-9.63,5.48-4.21,10.01-9.34,13.59-15.39,3.59-6.04,6.07-12.9,7.46-20.58h58.34c-1.51,13.09-5.38,25.61-11.61,37.57-6.23,11.96-14.51,22.66-24.83,32.09-10.32,9.44-22.59,16.87-36.81,22.28-14.22,5.41-30.21,8.12-47.95,8.12h.02Z"/>
    <path class="st0" d="M1288.1,373.78c-22.53,0-42.13-3.46-58.81-10.38s-29.67-17.18-38.99-30.77-14.22-30.33-14.73-50.22h56.07c.76,9.44,3.59,17.34,8.5,23.69,4.91,6.36,11.45,11.11,19.63,14.25,8.18,3.15,17.43,4.72,27.75,4.72s19.29-1.48,26.9-4.44,13.56-7.14,17.84-12.55c4.28-5.41,6.42-11.71,6.42-18.88,0-6.42-1.92-11.8-5.76-16.14-3.84-4.34-9.34-8.08-16.52-11.23-7.17-3.14-15.92-5.91-26.24-8.31l-30.96-7.74c-23.79-5.79-42.42-14.88-55.88-27.28-13.47-12.4-20.2-28.79-20.2-49.18,0-16.99,4.56-31.84,13.69-44.55,9.12-12.71,21.65-22.59,37.57-29.64,15.92-7.05,34.08-10.57,54.47-10.57s38.89,3.56,54.37,10.67,27.56,16.99,36.25,29.64c8.68,12.65,13.15,27.22,13.4,43.71h-55.69c-1.01-11.33-5.82-20.07-14.44-26.24-8.62-6.17-20.11-9.25-34.46-9.25-9.69,0-18,1.39-24.92,4.15-6.92,2.77-12.18,6.61-15.76,11.52-3.59,4.91-5.38,10.51-5.38,16.8,0,6.92,2.08,12.68,6.23,17.27,4.15,4.6,9.69,8.31,16.61,11.14s14.28,5.19,22.09,7.08l25.49,6.23c11.83,2.64,22.84,6.23,33.04,10.76,10.19,4.53,19.13,10.1,26.81,16.71,7.67,6.61,13.62,14.44,17.84,23.5,4.21,9.06,6.32,19.51,6.32,31.34,0,16.99-4.28,31.81-12.84,44.46-8.56,12.65-20.96,22.44-37.19,29.36-16.24,6.92-35.75,10.38-58.53,10.38h.01Z"/>
    <path class="st0" d="M1435.35,444.39l13.03-42.67,6.99,1.7c7.55,2.01,14.28,2.58,20.2,1.7,5.91-.88,10.67-3.27,14.25-7.17,3.59-3.9,5.76-9.38,6.51-16.42l1.51-11.33-79.29-211.64h60.22l35.49,109.5c4.28,13.85,7.77,27.69,10.48,41.53,2.71,13.85,5.82,28.32,9.35,43.42h-13.22c3.4-15.1,6.8-29.61,10.2-43.52,3.4-13.91,7.36-27.72,11.89-41.44l37-109.5h59.47l-89.68,235.99c-4.28,11.33-9.76,21.14-16.42,29.45-6.67,8.31-14.98,14.73-24.92,19.26-9.94,4.53-21.96,6.8-36.06,6.8-7.55,0-14.6-.54-21.14-1.61-6.55-1.07-11.83-2.42-15.86-4.06h0Z"/>
  </g>
  <g>
    <path class="st1" d="M1904.54,101.23c-20.63-11.43-45.26-17.15-73.88-17.15h-101.38v285.55h100.42c29,0,53.88-5.72,74.65-17.15,20.76-11.43,36.7-27.82,47.82-49.16,11.12-21.33,16.67-46.89,16.67-76.66s-5.56-55.1-16.67-76.37c-11.12-21.27-26.99-37.62-47.62-49.06h-.01ZM1901.19,279.17c-6.26,13.67-15.62,23.76-28.08,30.28s-27.88,9.77-46.28,9.77h-39.1v-184.74h39.48c18.27,0,33.57,3.26,45.9,9.77,12.33,6.52,21.66,16.58,27.98,30.18,6.32,13.61,9.49,31.02,9.49,52.22s-3.13,38.84-9.39,52.51h0Z"/>
    <path class="st1" d="M2163.07,166.58c-15.65-9.26-34.27-13.89-55.86-13.89s-40.05,4.63-55.77,13.89c-15.71,9.27-27.82,22.17-36.32,38.71-8.5,16.55-12.74,35.93-12.74,58.16s4.25,41.24,12.74,57.78c8.5,16.55,20.6,29.45,36.32,38.71,15.71,9.26,34.3,13.89,55.77,13.89s40.21-4.63,55.86-13.89c15.65-9.26,27.72-22.17,36.22-38.71,8.5-16.54,12.74-35.8,12.74-57.78s-4.25-41.62-12.74-58.16c-8.5-16.54-20.57-29.45-36.22-38.71h0ZM2148.41,296.71c-3.45,9.9-8.62,17.7-15.52,23.38-6.9,5.69-15.46,8.53-25.68,8.53s-18.75-2.84-25.58-8.53c-6.84-5.68-11.98-13.48-15.43-23.38s-5.17-21.05-5.17-33.44,1.72-23.89,5.17-33.73,8.59-17.57,15.43-23.19c6.83-5.62,15.36-8.43,25.58-8.43s18.78,2.81,25.68,8.43,12.07,13.35,15.52,23.19,5.17,21.08,5.17,33.73-1.72,23.54-5.17,33.44Z"/>
    <path class="st1" d="M2384.9,306.77c-2.43,4.6-5.43,8.53-9.01,11.79s-7.67,5.75-12.27,7.47-9.65,2.59-15.14,2.59c-10.22,0-18.81-2.81-25.78-8.43s-12.2-13.35-15.71-23.19c-3.52-9.84-5.27-21.08-5.27-33.73s1.75-24.27,5.27-34.11c3.51-9.84,8.75-17.5,15.71-23,6.96-5.49,15.55-8.24,25.78-8.24,5.49,0,10.51.83,15.04,2.49s8.53,4.06,11.98,7.19,6.39,6.9,8.82,11.31c2.42,4.41,4.22,9.42,5.37,15.04l53.47-9.97c-2.04-10.99-5.75-20.89-11.12-29.7-5.37-8.82-12.2-16.29-20.51-22.42s-17.82-10.86-28.55-14.18c-10.73-3.32-22.42-4.98-35.07-4.98-21.59,0-40.22,4.63-55.86,13.89-15.65,9.27-27.73,22.17-36.22,38.71-8.5,16.55-12.74,35.93-12.74,58.16s4.25,41.24,12.74,57.78c8.5,16.55,20.57,29.45,36.22,38.71,15.65,9.26,34.27,13.89,55.86,13.89,12.77,0,24.56-1.66,35.36-4.98,10.79-3.32,20.34-8.17,28.65-14.56,8.3-6.39,15.14-14.02,20.51-22.9s9.07-19,11.12-30.38l-53.47-9.77c-1.02,5.75-2.75,10.92-5.17,15.52h-.01Z"/>
    <path class="st1" d="M2648.79,266.24c-10.09-9.52-25.49-16.39-46.19-20.6l-38.52-7.67c-10.09-2.04-17.22-4.92-21.37-8.62-4.15-3.7-6.23-8.24-6.23-13.61,0-6.64,3.19-11.94,9.58-15.91,6.39-3.96,14.31-5.94,23.76-5.94,10.47,0,18.81,2.33,25.01,6.99,6.2,4.67,10.38,10.64,12.55,17.92l50.98-9.01c-2.56-11.62-7.67-21.72-15.33-30.28-7.67-8.56-17.7-15.17-30.09-19.83-12.39-4.66-27.02-7-43.89-7-18.14,0-33.92,2.68-47.34,8.05-13.42,5.37-23.89,13-31.43,22.9s-11.31,21.75-11.31,35.55c0,15.97,5.11,29.03,15.33,39.19s25.68,17.34,46.38,21.56l36.99,7.67c9.33,1.92,16.26,4.67,20.79,8.24,4.53,3.58,6.8,8.18,6.8,13.8,0,6.39-3.16,11.66-9.49,15.81-6.32,4.15-14.98,6.23-25.97,6.23-11.76,0-21.15-2.49-28.17-7.47-7.03-4.98-11.95-12.46-14.76-22.42l-53.47,9.2c2.43,13.29,7.86,24.63,16.29,34.02,8.43,9.39,19.29,16.55,32.58,21.46,13.29,4.92,28.55,7.38,45.8,7.38,18.78,0,35.36-2.94,49.73-8.82s25.65-14.09,33.83-24.63c8.17-10.54,12.26-22.84,12.26-36.89,0-15.33-5.05-27.75-15.14-37.27h.04Z"/>
  </g>
  <polygon class="st0" points="2.3 278.22 60.29 91.42 251.08 48.29 383.76 192.02 325.77 378.82 134.99 421.95 2.3 278.22"/>
  <polygon class="st2" points="161.21 337.54 265.81 313.9 297.6 211.49 224.86 132.7 120.26 156.34 88.47 258.75 161.21 337.54"/>
  <polygon class="st3" points="88.47 258.75 193.08 235.1 224.86 132.7 120.26 156.34 88.47 258.75"/>
  <path class="st1" d="M142.61,397.41h0l165.73-37.46,50.38-162.28-115.26-124.85-165.74,37.46,42.54,46.05,104.6-23.64,72.74,78.79-31.79,102.41-104.6,23.64"/>
</svg>