<?xml version="1.0" encoding="UTF-8"?>
<svg id="a" xmlns="http://www.w3.org/2000/svg" version="1.1" viewBox="0 0 1661.91 512">
  <!-- Generator: Adobe Illustrator 29.8.3, SVG Export Plug-In . SVG Version: 2.1.1 Build 3)  -->
  <defs>
    <style>
      .st0 {
        fill: #29324f;
      }

      .st1 {
        fill: #67e8f9;
      }
    </style>
  </defs>
  <polygon class="st0" points="7.93 278.22 65.92 91.42 256.71 48.3 389.39 192.02 331.4 378.82 140.62 421.94 7.93 278.22"/>
  <polygon class="st1" points="32.98 272.56 83.35 110.29 249.09 72.83 364.35 197.68 313.97 359.95 148.24 397.41 32.98 272.56"/>
  <polygon class="st0" points="166.84 337.54 271.44 313.9 303.23 211.49 230.49 132.7 125.89 156.34 94.1 258.75 166.84 337.54"/>
  <g>
    <path class="st0" d="M539.91,369.63V88.33h109.69c21.4,0,39.58,4.06,54.56,12.18s26.4,19.32,34.27,33.6c7.86,14.29,11.8,30.68,11.8,49.18s-4,35.02-11.99,49.18c-7.99,14.16-19.57,25.24-34.74,33.23-15.17,7.99-33.58,11.99-55.22,11.99h-70.61v-46.44h61.36c11.83,0,21.55-2.04,29.17-6.14,7.61-4.09,13.28-9.72,16.99-16.9,3.71-7.17,5.57-15.48,5.57-24.92s-1.86-17.71-5.57-24.83c-3.71-7.11-9.41-12.65-17.09-16.61-7.68-3.96-17.43-5.95-29.26-5.95h-41.35v233.72h-57.58Z"/>
    <path class="st0" d="M848.02,88.33v281.3h-57.58V88.33h57.58Z"/>
    <path class="st0" d="M1021.9,373.41c-24.92,0-47.23-5.66-66.93-16.99s-35.24-27.75-46.63-49.27-17.09-47.51-17.09-77.97,5.73-56.67,17.18-78.25,27.06-38.04,46.82-49.37c19.76-11.33,41.97-16.99,66.64-16.99,15.98,0,30.87,2.24,44.65,6.7,13.78,4.47,26.02,10.98,36.72,19.54s19.45,19.04,26.24,31.43c6.8,12.4,11.26,26.53,13.4,42.38h-58.34c-1.26-7.8-3.68-14.69-7.27-20.67s-8.06-11.07-13.4-15.29c-5.35-4.22-11.49-7.42-18.41-9.63-6.92-2.2-14.41-3.3-22.47-3.3-14.6,0-27.41,3.65-38.42,10.95s-19.57,17.91-25.68,31.81c-6.11,13.91-9.16,30.81-9.16,50.69s3.08,37.32,9.25,51.16c6.17,13.85,14.73,24.29,25.68,31.34s23.66,10.57,38.14,10.57c8.05,0,15.51-1.1,22.37-3.3,6.86-2.2,13.03-5.41,18.5-9.63,5.48-4.21,10.01-9.34,13.59-15.39,3.59-6.04,6.07-12.9,7.46-20.58h58.34c-1.51,13.09-5.38,25.61-11.61,37.57-6.23,11.96-14.51,22.66-24.83,32.09-10.32,9.44-22.59,16.87-36.81,22.28-14.22,5.41-30.21,8.12-47.95,8.12h.02Z"/>
    <path class="st0" d="M1288.1,373.78c-22.53,0-42.13-3.46-58.81-10.38s-29.67-17.18-38.99-30.77-14.22-30.33-14.73-50.22h56.07c.76,9.44,3.59,17.34,8.5,23.69,4.91,6.36,11.45,11.11,19.63,14.25,8.18,3.15,17.43,4.72,27.75,4.72s19.29-1.48,26.9-4.44,13.56-7.14,17.84-12.55c4.28-5.41,6.42-11.71,6.42-18.88,0-6.42-1.92-11.8-5.76-16.14-3.84-4.34-9.34-8.08-16.52-11.23-7.17-3.14-15.92-5.91-26.24-8.31l-30.96-7.74c-23.79-5.79-42.42-14.88-55.88-27.28-13.47-12.4-20.2-28.79-20.2-49.18,0-16.99,4.56-31.84,13.69-44.55,9.12-12.71,21.65-22.59,37.57-29.64,15.92-7.05,34.08-10.57,54.47-10.57s38.89,3.56,54.37,10.67,27.56,16.99,36.25,29.64c8.68,12.65,13.15,27.22,13.4,43.71h-55.69c-1.01-11.33-5.82-20.07-14.44-26.24-8.62-6.17-20.11-9.25-34.46-9.25-9.69,0-18,1.39-24.92,4.15-6.92,2.77-12.18,6.61-15.76,11.52-3.59,4.91-5.38,10.51-5.38,16.8,0,6.92,2.08,12.68,6.23,17.27,4.15,4.6,9.69,8.31,16.61,11.14s14.28,5.19,22.09,7.08l25.49,6.23c11.83,2.64,22.84,6.23,33.04,10.76,10.19,4.53,19.13,10.1,26.81,16.71,7.67,6.61,13.62,14.44,17.84,23.5,4.21,9.06,6.32,19.51,6.32,31.34,0,16.99-4.28,31.81-12.84,44.46-8.56,12.65-20.96,22.44-37.19,29.36-16.24,6.92-35.75,10.38-58.53,10.38h.01Z"/>
    <path class="st0" d="M1435.35,444.39l13.03-42.67,6.99,1.7c7.55,2.01,14.28,2.58,20.2,1.7,5.91-.88,10.67-3.27,14.25-7.17,3.59-3.9,5.76-9.38,6.51-16.42l1.51-11.33-79.29-211.64h60.22l35.49,109.5c4.28,13.85,7.77,27.69,10.48,41.53,2.71,13.85,5.82,28.32,9.35,43.42h-13.22c3.4-15.1,6.8-29.61,10.2-43.52,3.4-13.91,7.36-27.72,11.89-41.44l37-109.5h59.47l-89.68,235.99c-4.28,11.33-9.76,21.14-16.42,29.45-6.67,8.31-14.98,14.73-24.92,19.26-9.94,4.53-21.96,6.8-36.06,6.8-7.55,0-14.6-.54-21.14-1.61-6.55-1.07-11.83-2.42-15.86-4.06h0Z"/>
  </g>
</svg>